<svg id="visual" viewBox="0 0 960 540" width="960" height="540" xmlns="http://www.w3.org/2000/svg" xmlns:xlink="http://www.w3.org/1999/xlink" version="1.1"><rect x="0" y="0" width="960" height="540" fill="#001220"></rect><defs><linearGradient id="grad1_0" x1="43.8%" y1="0%" x2="100%" y2="100%"><stop offset="14.444444444444446%" stop-color="#fbae3c" stop-opacity="1"></stop><stop offset="85.55555555555554%" stop-color="#fbae3c" stop-opacity="1"></stop></linearGradient></defs><defs><linearGradient id="grad1_1" x1="43.8%" y1="0%" x2="100%" y2="100%"><stop offset="14.444444444444446%" stop-color="#fbae3c" stop-opacity="1"></stop><stop offset="85.55555555555554%" stop-color="#eb7458" stop-opacity="1"></stop></linearGradient></defs><defs><linearGradient id="grad1_2" x1="43.8%" y1="0%" x2="100%" y2="100%"><stop offset="14.444444444444446%" stop-color="#b84e6c" stop-opacity="1"></stop><stop offset="85.55555555555554%" stop-color="#eb7458" stop-opacity="1"></stop></linearGradient></defs><defs><linearGradient id="grad1_3" x1="43.8%" y1="0%" x2="100%" y2="100%"><stop offset="14.444444444444446%" stop-color="#b84e6c" stop-opacity="1"></stop><stop offset="85.55555555555554%" stop-color="#713c69" stop-opacity="1"></stop></linearGradient></defs><defs><linearGradient id="grad1_4" x1="43.8%" y1="0%" x2="100%" y2="100%"><stop offset="14.444444444444446%" stop-color="#2d2b4c" stop-opacity="1"></stop><stop offset="85.55555555555554%" stop-color="#713c69" stop-opacity="1"></stop></linearGradient></defs><defs><linearGradient id="grad1_5" x1="43.8%" y1="0%" x2="100%" y2="100%"><stop offset="14.444444444444446%" stop-color="#2d2b4c" stop-opacity="1"></stop><stop offset="85.55555555555554%" stop-color="#001220" stop-opacity="1"></stop></linearGradient></defs><defs><linearGradient id="grad2_0" x1="0%" y1="0%" x2="56.3%" y2="100%"><stop offset="14.444444444444446%" stop-color="#fbae3c" stop-opacity="1"></stop><stop offset="85.55555555555554%" stop-color="#fbae3c" stop-opacity="1"></stop></linearGradient></defs><defs><linearGradient id="grad2_1" x1="0%" y1="0%" x2="56.3%" y2="100%"><stop offset="14.444444444444446%" stop-color="#eb7458" stop-opacity="1"></stop><stop offset="85.55555555555554%" stop-color="#fbae3c" stop-opacity="1"></stop></linearGradient></defs><defs><linearGradient id="grad2_2" x1="0%" y1="0%" x2="56.3%" y2="100%"><stop offset="14.444444444444446%" stop-color="#eb7458" stop-opacity="1"></stop><stop offset="85.55555555555554%" stop-color="#b84e6c" stop-opacity="1"></stop></linearGradient></defs><defs><linearGradient id="grad2_3" x1="0%" y1="0%" x2="56.3%" y2="100%"><stop offset="14.444444444444446%" stop-color="#713c69" stop-opacity="1"></stop><stop offset="85.55555555555554%" stop-color="#b84e6c" stop-opacity="1"></stop></linearGradient></defs><defs><linearGradient id="grad2_4" x1="0%" y1="0%" x2="56.3%" y2="100%"><stop offset="14.444444444444446%" stop-color="#713c69" stop-opacity="1"></stop><stop offset="85.55555555555554%" stop-color="#2d2b4c" stop-opacity="1"></stop></linearGradient></defs><defs><linearGradient id="grad2_5" x1="0%" y1="0%" x2="56.3%" y2="100%"><stop offset="14.444444444444446%" stop-color="#001220" stop-opacity="1"></stop><stop offset="85.55555555555554%" stop-color="#2d2b4c" stop-opacity="1"></stop></linearGradient></defs><g transform="translate(960, 0)"><path d="M0 486C-96.8 480.1 -193.5 474.1 -243 420.9C-292.5 367.6 -294.7 267 -327.4 189C-360 111 -423 55.5 -486 0L0 0Z" fill="#131f37"></path><path d="M0 405C-80.6 400.1 -161.3 395.1 -202.5 350.7C-243.7 306.4 -245.6 222.5 -272.8 157.5C-300 92.5 -352.5 46.2 -405 0L0 0Z" fill="#4d345e"></path><path d="M0 324C-64.5 320 -129 316.1 -162 280.6C-195 245.1 -196.5 178 -218.2 126C-240 74 -282 37 -324 0L0 0Z" fill="#96446e"></path><path d="M0 243C-48.4 240 -96.8 237.1 -121.5 210.4C-146.2 183.8 -147.4 133.5 -163.7 94.5C-180 55.5 -211.5 27.7 -243 0L0 0Z" fill="#d55e64"></path><path d="M0 162C-32.3 160 -64.5 158 -81 140.3C-97.5 122.5 -98.2 89 -109.1 63C-120 37 -141 18.5 -162 0L0 0Z" fill="#f88f4a"></path><path d="M0 81C-16.1 80 -32.3 79 -40.5 70.1C-48.7 61.3 -49.1 44.5 -54.6 31.5C-60 18.5 -70.5 9.2 -81 0L0 0Z" fill="#fbae3c"></path></g><g transform="translate(0, 540)"><path d="M0 -486C97.9 -480.7 195.8 -475.5 243 -420.9C290.2 -366.3 286.7 -262.4 318.7 -184C350.7 -105.6 418.4 -52.8 486 0L0 0Z" fill="#131f37"></path><path d="M0 -405C81.6 -400.6 163.2 -396.2 202.5 -350.7C241.8 -305.2 238.9 -218.6 265.6 -153.3C292.3 -88 348.6 -44 405 0L0 0Z" fill="#4d345e"></path><path d="M0 -324C65.3 -320.5 130.5 -317 162 -280.6C193.5 -244.2 191.1 -174.9 212.5 -122.7C233.8 -70.4 278.9 -35.2 324 0L0 0Z" fill="#96446e"></path><path d="M0 -243C49 -240.4 97.9 -237.7 121.5 -210.4C145.1 -183.1 143.3 -131.2 159.3 -92C175.4 -52.8 209.2 -26.4 243 0L0 0Z" fill="#d55e64"></path><path d="M0 -162C32.6 -160.2 65.3 -158.5 81 -140.3C96.7 -122.1 95.6 -87.5 106.2 -61.3C116.9 -35.2 139.5 -17.6 162 0L0 0Z" fill="#f88f4a"></path><path d="M0 -81C16.3 -80.1 32.6 -79.2 40.5 -70.1C48.4 -61 47.8 -43.7 53.1 -30.7C58.5 -17.6 69.7 -8.8 81 0L0 0Z" fill="#fbae3c"></path></g></svg>